{
	"patcher" : 	{
		"fileversion" : 1,
		"appversion" : 		{
			"major" : 9,
			"minor" : 0,
			"revision" : 9,
			"architecture" : "x64",
			"modernui" : 1
		}
,
		"classnamespace" : "box",
		"openrect" : [ 30.0, 480.0, 717.0, 608.0 ],
		"gridonopen" : 2,
		"gridsize" : [ 15.0, 15.0 ],
		"gridsnaponopen" : 2,
		"objectsnaponopen" : 0,
		"boxes" : [ 			{
				"box" : 				{
					"id" : "obj-29",
					"maxclass" : "newobj",
					"numinlets" : 2,
					"numoutlets" : 2,
					"outlettype" : [ "bang", "" ],
					"patching_rect" : [ 1290.0, 750.0, 100.0, 22.0 ],
					"text" : "sel 1"
				}

			}
, 			{
				"box" : 				{
					"id" : "obj-3",
					"maxclass" : "newobj",
					"numinlets" : 2,
					"numoutlets" : 2,
					"outlettype" : [ "", "" ],
					"patching_rect" : [ 1290.0, 690.0, 100.0, 22.0 ],
					"text" : "route fire_midi"
				}

			}
, 			{
				"box" : 				{
					"id" : "obj-23",
					"maxclass" : "newobj",
					"numinlets" : 0,
					"numoutlets" : 1,
					"outlettype" : [ "" ],
					"patching_rect" : [ 1290.0, 660.0, 100.0, 22.0 ],
					"text" : "r ---Object"
				}

			}
, 			{
				"box" : 				{
					"id" : "obj-107",
					"maxclass" : "newobj",
					"numinlets" : 0,
					"numoutlets" : 1,
					"outlettype" : [ "" ],
					"patching_rect" : [ 2055.0, 945.0, 85.0, 22.0 ],
					"text" : "r ---Object_Init"
				}

			}
, 			{
				"box" : 				{
					"id" : "obj-106",
					"maxclass" : "newobj",
					"numinlets" : 0,
					"numoutlets" : 1,
					"outlettype" : [ "" ],
					"patching_rect" : [ 1545.0, 855.0, 85.0, 22.0 ],
					"text" : "r ---Object_Init"
				}

			}
, 			{
				"box" : 				{
					"id" : "obj-104",
					"maxclass" : "newobj",
					"numinlets" : 0,
					"numoutlets" : 1,
					"outlettype" : [ "" ],
					"patching_rect" : [ 1485.0, 600.0, 85.0, 22.0 ],
					"text" : "r ---Object_Init"
				}

			}
, 			{
				"box" : 				{
					"id" : "obj-103",
					"maxclass" : "newobj",
					"numinlets" : 0,
					"numoutlets" : 1,
					"outlettype" : [ "" ],
					"patching_rect" : [ 555.0, 975.0, 85.0, 22.0 ],
					"text" : "r ---Object_Init"
				}

			}
, 			{
				"box" : 				{
					"id" : "obj-102",
					"maxclass" : "newobj",
					"numinlets" : 0,
					"numoutlets" : 1,
					"outlettype" : [ "" ],
					"patching_rect" : [ 285.0, 795.0, 85.0, 22.0 ],
					"text" : "r ---Object_Init"
				}

			}
, 			{
				"box" : 				{
					"id" : "obj-101",
					"maxclass" : "newobj",
					"numinlets" : 2,
					"numoutlets" : 1,
					"outlettype" : [ "int" ],
					"patching_rect" : [ 255.0, 840.0, 45.0, 22.0 ],
					"text" : "i"
				}

			}
, 			{
				"box" : 				{
					"id" : "obj-100",
					"maxclass" : "newobj",
					"numinlets" : 0,
					"numoutlets" : 1,
					"outlettype" : [ "" ],
					"patching_rect" : [ 945.0, 150.0, 85.0, 22.0 ],
					"text" : "r ---Object_Init"
				}

			}
, 			{
				"box" : 				{
					"id" : "obj-281",
					"maxclass" : "newobj",
					"numinlets" : 0,
					"numoutlets" : 1,
					"outlettype" : [ "" ],
					"patching_rect" : [ 120.0, 165.0, 85.0, 22.0 ],
					"text" : "r ---Object_Init"
				}

			}
, 			{
				"box" : 				{
					"id" : "obj-96",
					"maxclass" : "newobj",
					"numinlets" : 1,
					"numoutlets" : 0,
					"patching_rect" : [ 255.0, 930.0, 77.0, 22.0 ],
					"text" : "s Signe_Hub"
				}

			}
, 			{
				"box" : 				{
					"id" : "obj-98",
					"maxclass" : "message",
					"numinlets" : 2,
					"numoutlets" : 1,
					"outlettype" : [ "" ],
					"patching_rect" : [ 255.0, 900.0, 165.0, 22.0 ],
					"text" : "ui_midi_trigger_state $2 $1"
				}

			}
, 			{
				"box" : 				{
					"id" : "obj-99",
					"maxclass" : "newobj",
					"numinlets" : 2,
					"numoutlets" : 1,
					"outlettype" : [ "" ],
					"patching_rect" : [ 255.0, 870.0, 91.0, 22.0 ],
					"text" : "pack f ---Object"
				}

			}
, 			{
				"box" : 				{
					"id" : "obj-144",
					"maxclass" : "newobj",
					"numinlets" : 1,
					"numoutlets" : 0,
					"patching_rect" : [ 990.0, 1170.0, 100.0, 22.0 ],
					"text" : "s Signe_Hub"
				}

			}
, 			{
				"box" : 				{
					"id" : "obj-145",
					"maxclass" : "message",
					"numinlets" : 2,
					"numoutlets" : 1,
					"outlettype" : [ "" ],
					"patching_rect" : [ 990.0, 1140.0, 239.0, 22.0 ],
					"text" : "ui_midi_trigger_rgb $4 $1 $2 $3"
				}

			}
, 			{
				"box" : 				{
					"id" : "obj-146",
					"maxclass" : "newobj",
					"numinlets" : 4,
					"numoutlets" : 1,
					"outlettype" : [ "" ],
					"patching_rect" : [ 990.0, 1110.0, 120.0, 22.0 ],
					"text" : "pack f f f ---Object"
				}

			}
, 			{
				"box" : 				{
					"id" : "obj-93",
					"maxclass" : "newobj",
					"numinlets" : 1,
					"numoutlets" : 0,
					"patching_rect" : [ 2160.0, 1096.0, 77.0, 22.0 ],
					"text" : "s Signe_Hub"
				}

			}
, 			{
				"box" : 				{
					"id" : "obj-94",
					"maxclass" : "message",
					"numinlets" : 2,
					"numoutlets" : 1,
					"outlettype" : [ "" ],
					"patching_rect" : [ 2160.0, 1064.0, 180.0, 22.0 ],
					"text" : "ui_midi_trigger_duration $2 $1"
				}

			}
, 			{
				"box" : 				{
					"id" : "obj-95",
					"maxclass" : "newobj",
					"numinlets" : 2,
					"numoutlets" : 1,
					"outlettype" : [ "" ],
					"patching_rect" : [ 2160.0, 1035.0, 91.0, 22.0 ],
					"text" : "pack f ---Object"
				}

			}
, 			{
				"box" : 				{
					"id" : "obj-88",
					"maxclass" : "newobj",
					"numinlets" : 1,
					"numoutlets" : 0,
					"patching_rect" : [ 1815.0, 991.0, 77.0, 22.0 ],
					"text" : "s Signe_Hub"
				}

			}
, 			{
				"box" : 				{
					"id" : "obj-89",
					"maxclass" : "message",
					"numinlets" : 2,
					"numoutlets" : 1,
					"outlettype" : [ "" ],
					"patching_rect" : [ 1815.0, 959.0, 180.0, 22.0 ],
					"text" : "ui_midi_trigger_velocity $2 $1"
				}

			}
, 			{
				"box" : 				{
					"id" : "obj-92",
					"maxclass" : "newobj",
					"numinlets" : 2,
					"numoutlets" : 1,
					"outlettype" : [ "" ],
					"patching_rect" : [ 1815.0, 930.0, 91.0, 22.0 ],
					"text" : "pack f ---Object"
				}

			}
, 			{
				"box" : 				{
					"id" : "obj-79",
					"maxclass" : "newobj",
					"numinlets" : 1,
					"numoutlets" : 0,
					"patching_rect" : [ 1755.0, 750.0, 77.0, 22.0 ],
					"text" : "s Signe_Hub"
				}

			}
, 			{
				"box" : 				{
					"id" : "obj-80",
					"maxclass" : "message",
					"numinlets" : 2,
					"numoutlets" : 1,
					"outlettype" : [ "" ],
					"patching_rect" : [ 1755.0, 718.0, 165.0, 22.0 ],
					"text" : "ui_midi_trigger_pitch $2 $1"
				}

			}
, 			{
				"box" : 				{
					"id" : "obj-83",
					"maxclass" : "newobj",
					"numinlets" : 2,
					"numoutlets" : 1,
					"outlettype" : [ "" ],
					"patching_rect" : [ 1755.0, 689.0, 91.0, 22.0 ],
					"text" : "pack f ---Object"
				}

			}
, 			{
				"box" : 				{
					"id" : "obj-69",
					"maxclass" : "newobj",
					"numinlets" : 1,
					"numoutlets" : 0,
					"patching_rect" : [ 675.0, 302.0, 77.0, 22.0 ],
					"text" : "s Signe_Hub"
				}

			}
, 			{
				"box" : 				{
					"id" : "obj-76",
					"maxclass" : "message",
					"numinlets" : 2,
					"numoutlets" : 1,
					"outlettype" : [ "" ],
					"patching_rect" : [ 675.0, 270.0, 165.0, 22.0 ],
					"text" : "ui_midi_trigger_sat $2 $1"
				}

			}
, 			{
				"box" : 				{
					"id" : "obj-77",
					"maxclass" : "newobj",
					"numinlets" : 2,
					"numoutlets" : 1,
					"outlettype" : [ "" ],
					"patching_rect" : [ 675.0, 241.0, 91.0, 22.0 ],
					"text" : "pack f ---Object"
				}

			}
, 			{
				"box" : 				{
					"id" : "obj-55",
					"maxclass" : "newobj",
					"numinlets" : 1,
					"numoutlets" : 0,
					"patching_rect" : [ 360.0, 302.0, 77.0, 22.0 ],
					"text" : "s Signe_Hub"
				}

			}
, 			{
				"box" : 				{
					"id" : "obj-64",
					"maxclass" : "message",
					"numinlets" : 2,
					"numoutlets" : 1,
					"outlettype" : [ "" ],
					"patching_rect" : [ 360.0, 270.0, 165.0, 22.0 ],
					"text" : "ui_midi_trigger_offset $2 $1"
				}

			}
, 			{
				"box" : 				{
					"id" : "obj-174",
					"maxclass" : "newobj",
					"numinlets" : 2,
					"numoutlets" : 1,
					"outlettype" : [ "" ],
					"patching_rect" : [ 360.0, 241.0, 91.0, 22.0 ],
					"text" : "pack f ---Object"
				}

			}
, 			{
				"box" : 				{
					"id" : "obj-63",
					"maxclass" : "newobj",
					"numinlets" : 1,
					"numoutlets" : 0,
					"patching_rect" : [ 240.0, 570.0, 77.0, 22.0 ],
					"text" : "s Signe_Hub"
				}

			}
, 			{
				"box" : 				{
					"id" : "obj-58",
					"maxclass" : "message",
					"numinlets" : 2,
					"numoutlets" : 1,
					"outlettype" : [ "" ],
					"patching_rect" : [ 240.0, 540.0, 180.0, 22.0 ],
					"text" : "ui_midi_trigger_offset $2 $1"
				}

			}
, 			{
				"box" : 				{
					"id" : "obj-52",
					"maxclass" : "newobj",
					"numinlets" : 2,
					"numoutlets" : 1,
					"outlettype" : [ "" ],
					"patching_rect" : [ 240.0, 510.0, 91.0, 22.0 ],
					"text" : "pack f ---Object"
				}

			}
, 			{
				"box" : 				{
					"id" : "obj-59",
					"maxclass" : "newobj",
					"numinlets" : 2,
					"numoutlets" : 1,
					"outlettype" : [ "int" ],
					"patching_rect" : [ 45.0, 810.0, 29.5, 22.0 ],
					"text" : "i"
				}

			}
, 			{
				"box" : 				{
					"id" : "obj-60",
					"maxclass" : "newobj",
					"numinlets" : 2,
					"numoutlets" : 2,
					"outlettype" : [ "bang", "" ],
					"patching_rect" : [ 480.0, 661.0, 34.0, 22.0 ],
					"text" : "sel 1"
				}

			}
, 			{
				"box" : 				{
					"id" : "obj-61",
					"maxclass" : "newobj",
					"numinlets" : 2,
					"numoutlets" : 1,
					"outlettype" : [ "" ],
					"patching_rect" : [ 195.0, 706.0, 32.0, 22.0 ],
					"text" : "gate"
				}

			}
, 			{
				"box" : 				{
					"id" : "obj-62",
					"maxclass" : "newobj",
					"numinlets" : 0,
					"numoutlets" : 1,
					"outlettype" : [ "" ],
					"patching_rect" : [ 195.0, 616.0, 141.0, 22.0 ],
					"text" : "r ---ThisObjectIsSelected"
				}

			}
, 			{
				"box" : 				{
					"id" : "obj-9",
					"maxclass" : "newobj",
					"numinlets" : 1,
					"numoutlets" : 0,
					"patching_rect" : [ 45.0, 840.0, 171.0, 22.0 ],
					"text" : "s MIDITriggerStateFromObject"
				}

			}
, 			{
				"box" : 				{
					"id" : "obj-6",
					"maxclass" : "newobj",
					"numinlets" : 0,
					"numoutlets" : 1,
					"outlettype" : [ "" ],
					"patching_rect" : [ 225.0, 661.0, 236.0, 22.0 ],
					"text" : "r ---ObjectMIDITriggerStateFromProperties"
				}

			}
, 			{
				"box" : 				{
					"id" : "obj-4",
					"maxclass" : "newobj",
					"numinlets" : 0,
					"numoutlets" : 1,
					"outlettype" : [ "" ],
					"patching_rect" : [ 75.0, 705.0, 97.0, 22.0 ],
					"text" : "r AllMIDITriggers"
				}

			}
, 			{
				"box" : 				{
					"activebgcolor" : [ 0.52156862745098, 0.541176470588235, 0.6, 0.6 ],
					"activebgoncolor" : [ 0.486274509803922, 0.705882352941177, 0.768627450980392, 1.0 ],
					"activetextcolor" : [ 0.0, 0.0, 0.0, 0.6 ],
					"hint" : "Show/hide this object's MIDI trigger.",
					"id" : "obj-426",
					"maxclass" : "live.text",
					"numinlets" : 1,
					"numoutlets" : 2,
					"outlettype" : [ "", "" ],
					"parameter_enable" : 1,
					"patching_rect" : [ 75.0, 750.0, 150.0, 15.0 ],
					"saved_attribute_attributes" : 					{
						"activebgcolor" : 						{
							"expression" : ""
						}
,
						"activebgoncolor" : 						{
							"expression" : ""
						}
,
						"activetextcolor" : 						{
							"expression" : ""
						}
,
						"textcolor" : 						{
							"expression" : ""
						}
,
						"valueof" : 						{
							"parameter_enum" : [ "val1", "val2" ],
							"parameter_invisible" : 1,
							"parameter_longname" : "MIDI Trigger Visible",
							"parameter_mmax" : 1,
							"parameter_modmode" : 0,
							"parameter_shortname" : "MIDI Trigger Visible",
							"parameter_type" : 2
						}

					}
,
					"text" : "MIDI trigger",
					"textcolor" : [ 0.0, 0.0, 0.0, 1.0 ],
					"texton" : "MIDI trigger",
					"varname" : "MIDI Trigger Visible"
				}

			}
, 			{
				"box" : 				{
					"bubble" : 1,
					"bubblepoint" : 0.24,
					"id" : "obj-53",
					"linecount" : 4,
					"maxclass" : "comment",
					"numinlets" : 1,
					"numoutlets" : 0,
					"patching_rect" : [ 1440.0, 1125.0, 150.0, 66.0 ],
					"text" : "pass through notes from previous devices in the track's device chain"
				}

			}
, 			{
				"box" : 				{
					"id" : "obj-51",
					"maxclass" : "newobj",
					"numinlets" : 1,
					"numoutlets" : 3,
					"outlettype" : [ "int", "int", "int" ],
					"patching_rect" : [ 1380.0, 1125.0, 45.0, 22.0 ],
					"text" : "notein"
				}

			}
, 			{
				"box" : 				{
					"id" : "obj-48",
					"maxclass" : "newobj",
					"numinlets" : 2,
					"numoutlets" : 1,
					"outlettype" : [ "bang" ],
					"patching_rect" : [ 795.0, 150.0, 61.0, 22.0 ],
					"text" : "delay 100"
				}

			}
, 			{
				"box" : 				{
					"id" : "obj-49",
					"maxclass" : "newobj",
					"numinlets" : 1,
					"numoutlets" : 3,
					"outlettype" : [ "bang", "int", "int" ],
					"patching_rect" : [ 795.0, 120.0, 83.0, 22.0 ],
					"text" : "live.thisdevice"
				}

			}
, 			{
				"box" : 				{
					"id" : "obj-50",
					"maxclass" : "newobj",
					"numinlets" : 2,
					"numoutlets" : 1,
					"outlettype" : [ "float" ],
					"patching_rect" : [ 1005.0, 240.0, 29.5, 22.0 ],
					"text" : "f"
				}

			}
, 			{
				"box" : 				{
					"id" : "obj-47",
					"maxclass" : "newobj",
					"numinlets" : 2,
					"numoutlets" : 1,
					"outlettype" : [ "float" ],
					"patching_rect" : [ 1545.0, 690.0, 29.5, 22.0 ],
					"text" : "f"
				}

			}
, 			{
				"box" : 				{
					"id" : "obj-46",
					"maxclass" : "newobj",
					"numinlets" : 2,
					"numoutlets" : 1,
					"outlettype" : [ "float" ],
					"patching_rect" : [ 1606.0, 959.0, 29.5, 22.0 ],
					"text" : "f"
				}

			}
, 			{
				"box" : 				{
					"id" : "obj-45",
					"maxclass" : "newobj",
					"numinlets" : 2,
					"numoutlets" : 1,
					"outlettype" : [ "float" ],
					"patching_rect" : [ 2115.0, 1095.0, 29.5, 22.0 ],
					"text" : "f"
				}

			}
, 			{
				"box" : 				{
					"id" : "obj-44",
					"maxclass" : "newobj",
					"numinlets" : 2,
					"numoutlets" : 2,
					"outlettype" : [ "", "" ],
					"patching_rect" : [ 795.0, 1110.0, 38.0, 22.0 ],
					"text" : "zl reg"
				}

			}
, 			{
				"box" : 				{
					"id" : "obj-43",
					"maxclass" : "newobj",
					"numinlets" : 2,
					"numoutlets" : 1,
					"outlettype" : [ "float" ],
					"patching_rect" : [ 105.0, 240.0, 29.5, 22.0 ],
					"text" : "f"
				}

			}
, 			{
				"box" : 				{
					"id" : "obj-42",
					"maxclass" : "newobj",
					"numinlets" : 1,
					"numoutlets" : 0,
					"patching_rect" : [ 884.0, 285.0, 211.0, 22.0 ],
					"text" : "s MIDITrigger_Saturation_FromObject"
				}

			}
, 			{
				"box" : 				{
					"id" : "obj-27",
					"maxclass" : "newobj",
					"numinlets" : 2,
					"numoutlets" : 2,
					"outlettype" : [ "bang", "" ],
					"patching_rect" : [ 1125.0, 150.0, 34.0, 22.0 ],
					"text" : "sel 1"
				}

			}
, 			{
				"box" : 				{
					"id" : "obj-36",
					"maxclass" : "newobj",
					"numinlets" : 2,
					"numoutlets" : 1,
					"outlettype" : [ "" ],
					"patching_rect" : [ 884.0, 150.0, 32.0, 22.0 ],
					"text" : "gate"
				}

			}
, 			{
				"box" : 				{
					"id" : "obj-40",
					"maxclass" : "newobj",
					"numinlets" : 0,
					"numoutlets" : 1,
					"outlettype" : [ "" ],
					"patching_rect" : [ 915.0, 106.0, 201.0, 22.0 ],
					"text" : "r MIDITrigger_Saturation_FromMain"
				}

			}
, 			{
				"box" : 				{
					"id" : "obj-41",
					"maxclass" : "newobj",
					"numinlets" : 0,
					"numoutlets" : 1,
					"outlettype" : [ "" ],
					"patching_rect" : [ 884.0, 60.0, 141.0, 22.0 ],
					"text" : "r ---ThisObjectIsSelected"
				}

			}
, 			{
				"box" : 				{
					"id" : "obj-20",
					"maxclass" : "newobj",
					"numinlets" : 2,
					"numoutlets" : 2,
					"outlettype" : [ "bang", "" ],
					"patching_rect" : [ 646.0, 917.0, 34.0, 22.0 ],
					"text" : "sel 1"
				}

			}
, 			{
				"box" : 				{
					"id" : "obj-21",
					"maxclass" : "newobj",
					"numinlets" : 2,
					"numoutlets" : 1,
					"outlettype" : [ "" ],
					"patching_rect" : [ 690.0, 917.0, 32.0, 22.0 ],
					"text" : "gate"
				}

			}
, 			{
				"box" : 				{
					"id" : "obj-22",
					"maxclass" : "newobj",
					"numinlets" : 0,
					"numoutlets" : 1,
					"outlettype" : [ "" ],
					"patching_rect" : [ 646.0, 841.0, 141.0, 22.0 ],
					"text" : "r ---ThisObjectIsSelected"
				}

			}
, 			{
				"box" : 				{
					"id" : "obj-19",
					"maxclass" : "newobj",
					"numinlets" : 0,
					"numoutlets" : 1,
					"outlettype" : [ "" ],
					"patching_rect" : [ 690.0, 871.0, 172.0, 22.0 ],
					"text" : "r MIDITrigger_RGB_FromMain"
				}

			}
, 			{
				"box" : 				{
					"id" : "obj-18",
					"maxclass" : "newobj",
					"numinlets" : 1,
					"numoutlets" : 0,
					"patching_rect" : [ 795.0, 1140.0, 183.0, 22.0 ],
					"text" : "s MIDITrigger_RGB_FromObject"
				}

			}
, 			{
				"box" : 				{
					"id" : "obj-37",
					"maxclass" : "newobj",
					"numinlets" : 2,
					"numoutlets" : 2,
					"outlettype" : [ "bang", "" ],
					"patching_rect" : [ 270.0, 120.0, 34.0, 22.0 ],
					"text" : "sel 1"
				}

			}
, 			{
				"box" : 				{
					"id" : "obj-38",
					"maxclass" : "newobj",
					"numinlets" : 2,
					"numoutlets" : 1,
					"outlettype" : [ "" ],
					"patching_rect" : [ 60.0, 165.0, 32.0, 22.0 ],
					"text" : "gate"
				}

			}
, 			{
				"box" : 				{
					"id" : "obj-39",
					"maxclass" : "newobj",
					"numinlets" : 0,
					"numoutlets" : 1,
					"outlettype" : [ "" ],
					"patching_rect" : [ 60.0, 75.0, 141.0, 22.0 ],
					"text" : "r ---ThisObjectIsSelected"
				}

			}
, 			{
				"box" : 				{
					"id" : "obj-31",
					"maxclass" : "newobj",
					"numinlets" : 2,
					"numoutlets" : 2,
					"outlettype" : [ "bang", "" ],
					"patching_rect" : [ 2280.0, 900.0, 34.0, 22.0 ],
					"text" : "sel 1"
				}

			}
, 			{
				"box" : 				{
					"id" : "obj-32",
					"maxclass" : "newobj",
					"numinlets" : 2,
					"numoutlets" : 1,
					"outlettype" : [ "" ],
					"patching_rect" : [ 2011.0, 945.0, 32.0, 22.0 ],
					"text" : "gate"
				}

			}
, 			{
				"box" : 				{
					"id" : "obj-35",
					"maxclass" : "newobj",
					"numinlets" : 0,
					"numoutlets" : 1,
					"outlettype" : [ "" ],
					"patching_rect" : [ 2011.0, 855.0, 141.0, 22.0 ],
					"text" : "r ---ThisObjectIsSelected"
				}

			}
, 			{
				"box" : 				{
					"id" : "obj-24",
					"maxclass" : "newobj",
					"numinlets" : 2,
					"numoutlets" : 2,
					"outlettype" : [ "bang", "" ],
					"patching_rect" : [ 1770.0, 810.0, 34.0, 22.0 ],
					"text" : "sel 1"
				}

			}
, 			{
				"box" : 				{
					"id" : "obj-26",
					"maxclass" : "newobj",
					"numinlets" : 2,
					"numoutlets" : 1,
					"outlettype" : [ "" ],
					"patching_rect" : [ 1470.0, 854.0, 32.0, 22.0 ],
					"text" : "gate"
				}

			}
, 			{
				"box" : 				{
					"id" : "obj-28",
					"maxclass" : "newobj",
					"numinlets" : 0,
					"numoutlets" : 1,
					"outlettype" : [ "" ],
					"patching_rect" : [ 1470.0, 749.0, 141.0, 22.0 ],
					"text" : "r ---ThisObjectIsSelected"
				}

			}
, 			{
				"box" : 				{
					"id" : "obj-17",
					"maxclass" : "newobj",
					"numinlets" : 2,
					"numoutlets" : 2,
					"outlettype" : [ "bang", "" ],
					"patching_rect" : [ 1635.0, 601.0, 34.0, 22.0 ],
					"text" : "sel 1"
				}

			}
, 			{
				"box" : 				{
					"id" : "obj-8",
					"maxclass" : "newobj",
					"numinlets" : 2,
					"numoutlets" : 1,
					"outlettype" : [ "" ],
					"patching_rect" : [ 1425.0, 600.0, 32.0, 22.0 ],
					"text" : "gate"
				}

			}
, 			{
				"box" : 				{
					"id" : "obj-7",
					"maxclass" : "newobj",
					"numinlets" : 1,
					"numoutlets" : 0,
					"patching_rect" : [ 1545.0, 720.0, 183.0, 22.0 ],
					"text" : "s MIDITrigger_Pitch_FromObject"
				}

			}
, 			{
				"box" : 				{
					"id" : "obj-13",
					"maxclass" : "newobj",
					"numinlets" : 0,
					"numoutlets" : 1,
					"outlettype" : [ "" ],
					"patching_rect" : [ 2042.0, 900.0, 191.0, 22.0 ],
					"text" : "r MIDITrigger_Duration_FromMain"
				}

			}
, 			{
				"box" : 				{
					"id" : "obj-11",
					"maxclass" : "newobj",
					"numinlets" : 0,
					"numoutlets" : 1,
					"outlettype" : [ "" ],
					"patching_rect" : [ 1485.0, 810.0, 187.0, 22.0 ],
					"text" : "r MIDITrigger_Velocity_FromMain"
				}

			}
, 			{
				"box" : 				{
					"id" : "obj-10",
					"maxclass" : "newobj",
					"numinlets" : 0,
					"numoutlets" : 1,
					"outlettype" : [ "" ],
					"patching_rect" : [ 1440.0, 555.0, 173.0, 22.0 ],
					"text" : "r MIDITrigger_Pitch_FromMain"
				}

			}
, 			{
				"box" : 				{
					"id" : "obj-5",
					"maxclass" : "newobj",
					"numinlets" : 0,
					"numoutlets" : 1,
					"outlettype" : [ "" ],
					"patching_rect" : [ 75.0, 120.0, 178.0, 22.0 ],
					"text" : "r MIDITrigger_Offset_FromMain"
				}

			}
, 			{
				"box" : 				{
					"id" : "obj-15",
					"maxclass" : "newobj",
					"numinlets" : 1,
					"numoutlets" : 0,
					"patching_rect" : [ 2115.0, 1125.0, 202.0, 22.0 ],
					"text" : "s MIDITrigger_Duration_FromObject"
				}

			}
, 			{
				"box" : 				{
					"id" : "obj-16",
					"maxclass" : "newobj",
					"numinlets" : 1,
					"numoutlets" : 0,
					"patching_rect" : [ 1606.0, 990.0, 198.0, 22.0 ],
					"text" : "s MIDITrigger_Velocity_FromObject"
				}

			}
, 			{
				"box" : 				{
					"id" : "obj-14",
					"maxclass" : "newobj",
					"numinlets" : 1,
					"numoutlets" : 0,
					"patching_rect" : [ 105.0, 285.0, 189.0, 22.0 ],
					"text" : "s MIDITrigger_Offset_FromObject"
				}

			}
, 			{
				"box" : 				{
					"id" : "obj-172",
					"maxclass" : "newobj",
					"numinlets" : 0,
					"numoutlets" : 1,
					"outlettype" : [ "" ],
					"patching_rect" : [ 1425.0, 495.0, 141.0, 22.0 ],
					"text" : "r ---ThisObjectIsSelected"
				}

			}
, 			{
				"box" : 				{
					"id" : "obj-2",
					"maxclass" : "newobj",
					"numinlets" : 1,
					"numoutlets" : 0,
					"patching_rect" : [ 1320.0, 795.0, 103.0, 22.0 ],
					"text" : "s PlayheadNoteIn"
				}

			}
, 			{
				"box" : 				{
					"id" : "obj-1",
					"linecount" : 2,
					"maxclass" : "comment",
					"numinlets" : 1,
					"numoutlets" : 0,
					"patching_rect" : [ 60.0, 15.0, 61.0, 34.0 ],
					"presentation" : 1,
					"presentation_rect" : [ 15.0, 0.0, 75.0, 20.0 ],
					"text" : "MIDI trigger",
					"textcolor" : [ 0.862745098039216, 0.870588235294118, 0.87843137254902, 1.0 ]
				}

			}
, 			{
				"box" : 				{
					"hint" : "Set the duration of the MIDI note triggered when this object touches the playhead.",
					"id" : "obj-389",
					"maxclass" : "live.numbox",
					"numinlets" : 1,
					"numoutlets" : 2,
					"outlettype" : [ "", "float" ],
					"parameter_enable" : 1,
					"patching_rect" : [ 2011.0, 989.0, 44.0, 15.0 ],
					"presentation" : 1,
					"presentation_rect" : [ 75.0, 105.0, 44.0, 15.0 ],
					"saved_attribute_attributes" : 					{
						"valueof" : 						{
							"parameter_initial" : [ 100 ],
							"parameter_initial_enable" : 1,
							"parameter_invisible" : 1,
							"parameter_longname" : "MIDI Trigger Duration",
							"parameter_mmax" : 9999.0,
							"parameter_modmode" : 0,
							"parameter_shortname" : "MIDI Trigger Duration",
							"parameter_type" : 0,
							"parameter_unitstyle" : 1
						}

					}
,
					"varname" : "MIDI Trigger Duration"
				}

			}
, 			{
				"box" : 				{
					"hint" : "Set the velocity of the MIDI note triggered when this object touches the playhead.",
					"id" : "obj-419",
					"maxclass" : "live.numbox",
					"numinlets" : 1,
					"numoutlets" : 2,
					"outlettype" : [ "", "float" ],
					"parameter_enable" : 1,
					"patching_rect" : [ 1470.0, 900.0, 44.0, 15.0 ],
					"presentation" : 1,
					"presentation_rect" : [ 75.0, 90.0, 44.0, 15.0 ],
					"saved_attribute_attributes" : 					{
						"valueof" : 						{
							"parameter_initial" : [ 100 ],
							"parameter_initial_enable" : 1,
							"parameter_longname" : "MIDI Trigger Velocity",
							"parameter_modmode" : 0,
							"parameter_shortname" : "MIDI Trigger Velocity",
							"parameter_type" : 1,
							"parameter_unitstyle" : 0
						}

					}
,
					"varname" : "MIDI Trigger Velocity"
				}

			}
, 			{
				"box" : 				{
					"hint" : "Set the pitch of the MIDI note triggered when this object touches the playhead.",
					"id" : "obj-445",
					"maxclass" : "live.numbox",
					"numinlets" : 1,
					"numoutlets" : 2,
					"outlettype" : [ "", "float" ],
					"parameter_enable" : 1,
					"patching_rect" : [ 1425.0, 644.0, 44.0, 15.0 ],
					"presentation" : 1,
					"presentation_rect" : [ 75.0, 75.0, 44.0, 15.0 ],
					"saved_attribute_attributes" : 					{
						"valueof" : 						{
							"parameter_initial" : [ 60 ],
							"parameter_initial_enable" : 1,
							"parameter_longname" : "MIDI Trigger Pitch",
							"parameter_modmode" : 0,
							"parameter_shortname" : "MIDI Trigger Pitch",
							"parameter_type" : 1,
							"parameter_unitstyle" : 0
						}

					}
,
					"varname" : "MIDI Trigger Pitch"
				}

			}
, 			{
				"box" : 				{
					"id" : "obj-458",
					"maxclass" : "comment",
					"numinlets" : 1,
					"numoutlets" : 0,
					"patching_rect" : [ 2055.0, 989.0, 52.0, 20.0 ],
					"presentation" : 1,
					"presentation_rect" : [ 15.0, 105.0, 52.0, 20.0 ],
					"text" : "duration",
					"textcolor" : [ 0.862745098039216, 0.870588235294118, 0.87843137254902, 1.0 ]
				}

			}
, 			{
				"box" : 				{
					"id" : "obj-457",
					"maxclass" : "comment",
					"numinlets" : 1,
					"numoutlets" : 0,
					"patching_rect" : [ 1516.0, 900.0, 49.0, 20.0 ],
					"presentation" : 1,
					"presentation_rect" : [ 15.0, 90.0, 49.0, 20.0 ],
					"text" : "velocity",
					"textcolor" : [ 0.862745098039216, 0.870588235294118, 0.87843137254902, 1.0 ]
				}

			}
, 			{
				"box" : 				{
					"id" : "obj-456",
					"maxclass" : "comment",
					"numinlets" : 1,
					"numoutlets" : 0,
					"patching_rect" : [ 1469.0, 644.0, 34.0, 20.0 ],
					"presentation" : 1,
					"presentation_rect" : [ 15.0, 75.0, 34.0, 20.0 ],
					"text" : "pitch",
					"textcolor" : [ 0.862745098039216, 0.870588235294118, 0.87843137254902, 1.0 ]
				}

			}
, 			{
				"box" : 				{
					"id" : "obj-447",
					"maxclass" : "newobj",
					"numinlets" : 2,
					"numoutlets" : 1,
					"outlettype" : [ "int" ],
					"patching_rect" : [ 1290.0, 840.0, 75.5, 22.0 ],
					"text" : "i"
				}

			}
, 			{
				"box" : 				{
					"id" : "obj-12",
					"maxclass" : "newobj",
					"numinlets" : 3,
					"numoutlets" : 0,
					"patching_rect" : [ 1290.0, 1200.0, 135.0, 22.0 ],
					"text" : "noteout"
				}

			}
, 			{
				"box" : 				{
					"id" : "obj-257",
					"linecount" : 2,
					"maxclass" : "comment",
					"numinlets" : 1,
					"numoutlets" : 0,
					"patching_rect" : [ 1215.0, 615.0, 172.0, 34.0 ],
					"text" : "play MIDI note when transport gets to this object's position"
				}

			}
, 			{
				"box" : 				{
					"id" : "obj-222",
					"maxclass" : "newobj",
					"numinlets" : 3,
					"numoutlets" : 2,
					"outlettype" : [ "float", "float" ],
					"patching_rect" : [ 1290.0, 1034.0, 270.0, 22.0 ],
					"text" : "makenote 60 100"
				}

			}
, 			{
				"box" : 				{
					"id" : "obj-440",
					"maxclass" : "newobj",
					"numinlets" : 1,
					"numoutlets" : 2,
					"outlettype" : [ "bang", "float" ],
					"patching_rect" : [ 105.0, 420.0, 29.5, 22.0 ],
					"text" : "t b f"
				}

			}
, 			{
				"box" : 				{
					"id" : "obj-438",
					"maxclass" : "newobj",
					"numinlets" : 2,
					"numoutlets" : 1,
					"outlettype" : [ "float" ],
					"patching_rect" : [ 60.0, 465.0, 75.0, 22.0 ],
					"text" : "* 1."
				}

			}
, 			{
				"box" : 				{
					"id" : "obj-437",
					"maxclass" : "newobj",
					"numinlets" : 2,
					"numoutlets" : 2,
					"outlettype" : [ "", "" ],
					"patching_rect" : [ 105.0, 390.0, 47.0, 22.0 ],
					"text" : "zl nth 1"
				}

			}
, 			{
				"box" : 				{
					"hint" : "Set the saturation of the MIDI trigger's colour.",
					"id" : "obj-328",
					"maxclass" : "live.numbox",
					"numinlets" : 1,
					"numoutlets" : 2,
					"outlettype" : [ "", "float" ],
					"parameter_enable" : 1,
					"patching_rect" : [ 884.0, 196.0, 44.0, 15.0 ],
					"presentation" : 1,
					"presentation_rect" : [ 75.0, 45.0, 44.0, 15.0 ],
					"saved_attribute_attributes" : 					{
						"valueof" : 						{
							"parameter_initial" : [ 1 ],
							"parameter_initial_enable" : 1,
							"parameter_invisible" : 1,
							"parameter_longname" : "MIDI Trigger Colour Saturation",
							"parameter_mmax" : 1.0,
							"parameter_modmode" : 0,
							"parameter_shortname" : "MIDI Trigger Colour Saturation",
							"parameter_type" : 0,
							"parameter_unitstyle" : 1
						}

					}
,
					"varname" : "MIDI Trigger Colour Saturation"
				}

			}
, 			{
				"box" : 				{
					"id" : "obj-429",
					"maxclass" : "newobj",
					"numinlets" : 3,
					"numoutlets" : 1,
					"outlettype" : [ "" ],
					"patching_rect" : [ 646.0, 1065.0, 105.0, 22.0 ],
					"text" : "pak f f f"
				}

			}
, 			{
				"box" : 				{
					"id" : "obj-430",
					"maxclass" : "live.numbox",
					"numinlets" : 1,
					"numoutlets" : 2,
					"outlettype" : [ "", "float" ],
					"parameter_enable" : 1,
					"patching_rect" : [ 736.0, 1019.0, 44.0, 15.0 ],
					"saved_attribute_attributes" : 					{
						"valueof" : 						{
							"parameter_initial" : [ 0 ],
							"parameter_initial_enable" : 1,
							"parameter_invisible" : 1,
							"parameter_longname" : "MIDI Trigger Colour B",
							"parameter_mmax" : 1.0,
							"parameter_modmode" : 0,
							"parameter_shortname" : "MIDI Trigger Colour B",
							"parameter_type" : 0,
							"parameter_unitstyle" : 1
						}

					}
,
					"varname" : "MIDI Trigger Colour B"
				}

			}
, 			{
				"box" : 				{
					"id" : "obj-431",
					"maxclass" : "live.numbox",
					"numinlets" : 1,
					"numoutlets" : 2,
					"outlettype" : [ "", "float" ],
					"parameter_enable" : 1,
					"patching_rect" : [ 690.0, 1019.0, 44.0, 15.0 ],
					"saved_attribute_attributes" : 					{
						"valueof" : 						{
							"parameter_initial" : [ 0 ],
							"parameter_initial_enable" : 1,
							"parameter_invisible" : 1,
							"parameter_longname" : "MIDI Trigger Colour G",
							"parameter_mmax" : 1.0,
							"parameter_modmode" : 0,
							"parameter_shortname" : "MIDI Trigger Colour G",
							"parameter_type" : 0,
							"parameter_unitstyle" : 1
						}

					}
,
					"varname" : "MIDI Trigger Colour G"
				}

			}
, 			{
				"box" : 				{
					"id" : "obj-432",
					"maxclass" : "live.numbox",
					"numinlets" : 1,
					"numoutlets" : 2,
					"outlettype" : [ "", "float" ],
					"parameter_enable" : 1,
					"patching_rect" : [ 646.0, 1019.0, 44.0, 15.0 ],
					"saved_attribute_attributes" : 					{
						"valueof" : 						{
							"parameter_initial" : [ 1 ],
							"parameter_initial_enable" : 1,
							"parameter_invisible" : 1,
							"parameter_longname" : "MIDI Trigger Colour R",
							"parameter_mmax" : 1.0,
							"parameter_modmode" : 0,
							"parameter_shortname" : "MIDI Trigger Colour R",
							"parameter_type" : 0,
							"parameter_unitstyle" : 1
						}

					}
,
					"varname" : "MIDI Trigger Colour R"
				}

			}
, 			{
				"box" : 				{
					"id" : "obj-433",
					"maxclass" : "newobj",
					"numinlets" : 1,
					"numoutlets" : 3,
					"outlettype" : [ "float", "float", "float" ],
					"patching_rect" : [ 646.0, 975.0, 116.5, 22.0 ],
					"text" : "unpack f f f"
				}

			}
, 			{
				"box" : 				{
					"id" : "obj-425",
					"maxclass" : "comment",
					"numinlets" : 1,
					"numoutlets" : 0,
					"patching_rect" : [ 0.0, 210.0, 45.0, 20.0 ],
					"presentation" : 1,
					"presentation_rect" : [ 15.0, 60.0, 45.0, 20.0 ],
					"text" : "offset",
					"textcolor" : [ 0.862745098039216, 0.870588235294118, 0.87843137254902, 1.0 ]
				}

			}
, 			{
				"box" : 				{
					"id" : "obj-423",
					"maxclass" : "newobj",
					"numinlets" : 1,
					"numoutlets" : 0,
					"patching_rect" : [ 60.0, 510.0, 133.0, 22.0 ],
					"text" : "s ---MIDITriggerOffsetX"
				}

			}
, 			{
				"box" : 				{
					"hint" : "Offset the MIDI trigger horizontally from the position of the object.",
					"id" : "obj-421",
					"maxclass" : "live.numbox",
					"numinlets" : 1,
					"numoutlets" : 2,
					"outlettype" : [ "", "float" ],
					"parameter_enable" : 1,
					"patching_rect" : [ 60.0, 210.0, 44.0, 15.0 ],
					"presentation" : 1,
					"presentation_rect" : [ 75.0, 60.0, 44.0, 15.0 ],
					"saved_attribute_attributes" : 					{
						"valueof" : 						{
							"parameter_initial" : [ -1 ],
							"parameter_initial_enable" : 1,
							"parameter_invisible" : 1,
							"parameter_longname" : "MIDI Trigger Offset",
							"parameter_mmax" : 10.0,
							"parameter_mmin" : -10.0,
							"parameter_modmode" : 0,
							"parameter_shortname" : "MIDI Trigger Offset",
							"parameter_type" : 0,
							"parameter_unitstyle" : 1
						}

					}
,
					"varname" : "MIDI Trigger Offset"
				}

			}
, 			{
				"box" : 				{
					"id" : "obj-341",
					"maxclass" : "newobj",
					"numinlets" : 2,
					"numoutlets" : 2,
					"outlettype" : [ "", "" ],
					"patching_rect" : [ 105.0, 360.0, 67.0, 22.0 ],
					"text" : "route scale"
				}

			}
, 			{
				"box" : 				{
					"id" : "obj-75",
					"maxclass" : "newobj",
					"numinlets" : 0,
					"numoutlets" : 1,
					"outlettype" : [ "" ],
					"patching_rect" : [ 105.0, 330.0, 109.0, 22.0 ],
					"text" : "r ---ToPhysicsBody"
				}

			}
 ],
		"lines" : [ 			{
				"patchline" : 				{
					"destination" : [ "obj-8", 1 ],
					"midpoints" : [ 1449.5, 588.767582774162292, 1447.5, 588.767582774162292 ],
					"source" : [ "obj-10", 0 ]
				}

			}
, 			{
				"patchline" : 				{
					"destination" : [ "obj-328", 0 ],
					"midpoints" : [ 954.5, 184.0, 893.5, 184.0 ],
					"source" : [ "obj-100", 0 ]
				}

			}
, 			{
				"patchline" : 				{
					"destination" : [ "obj-99", 0 ],
					"source" : [ "obj-101", 0 ]
				}

			}
, 			{
				"patchline" : 				{
					"destination" : [ "obj-101", 0 ],
					"midpoints" : [ 294.5, 828.5, 264.5, 828.5 ],
					"source" : [ "obj-102", 0 ]
				}

			}
, 			{
				"patchline" : 				{
					"destination" : [ "obj-430", 0 ],
					"midpoints" : [ 564.5, 1008.0, 745.5, 1008.0 ],
					"order" : 0,
					"source" : [ "obj-103", 0 ]
				}

			}
, 			{
				"patchline" : 				{
					"destination" : [ "obj-431", 0 ],
					"midpoints" : [ 564.5, 1008.0, 699.5, 1008.0 ],
					"order" : 1,
					"source" : [ "obj-103", 0 ]
				}

			}
, 			{
				"patchline" : 				{
					"destination" : [ "obj-432", 0 ],
					"midpoints" : [ 564.5, 1008.0, 655.5, 1008.0 ],
					"order" : 2,
					"source" : [ "obj-103", 0 ]
				}

			}
, 			{
				"patchline" : 				{
					"destination" : [ "obj-445", 0 ],
					"midpoints" : [ 1494.5, 633.0, 1434.5, 633.0 ],
					"source" : [ "obj-104", 0 ]
				}

			}
, 			{
				"patchline" : 				{
					"destination" : [ "obj-419", 0 ],
					"midpoints" : [ 1554.5, 888.5, 1479.5, 888.5 ],
					"source" : [ "obj-106", 0 ]
				}

			}
, 			{
				"patchline" : 				{
					"destination" : [ "obj-389", 0 ],
					"midpoints" : [ 2064.5, 978.0, 2020.5, 978.0 ],
					"source" : [ "obj-107", 0 ]
				}

			}
, 			{
				"patchline" : 				{
					"destination" : [ "obj-26", 1 ],
					"midpoints" : [ 1494.5, 843.157626867294312, 1492.5, 843.157626867294312 ],
					"source" : [ "obj-11", 0 ]
				}

			}
, 			{
				"patchline" : 				{
					"destination" : [ "obj-32", 1 ],
					"midpoints" : [ 2051.5, 934.10209858417511, 2033.5, 934.10209858417511 ],
					"source" : [ "obj-13", 0 ]
				}

			}
, 			{
				"patchline" : 				{
					"destination" : [ "obj-144", 0 ],
					"source" : [ "obj-145", 0 ]
				}

			}
, 			{
				"patchline" : 				{
					"destination" : [ "obj-145", 0 ],
					"source" : [ "obj-146", 0 ]
				}

			}
, 			{
				"patchline" : 				{
					"destination" : [ "obj-445", 0 ],
					"midpoints" : [ 1644.5, 633.767582774162292, 1434.5, 633.767582774162292 ],
					"order" : 1,
					"source" : [ "obj-17", 0 ]
				}

			}
, 			{
				"patchline" : 				{
					"destination" : [ "obj-47", 0 ],
					"midpoints" : [ 1644.5, 662.53301477432251, 1554.5, 662.53301477432251 ],
					"order" : 0,
					"source" : [ "obj-17", 0 ]
				}

			}
, 			{
				"patchline" : 				{
					"destination" : [ "obj-17", 0 ],
					"midpoints" : [ 1434.5, 537.779926776885986, 1644.5, 537.779926776885986 ],
					"order" : 0,
					"source" : [ "obj-172", 0 ]
				}

			}
, 			{
				"patchline" : 				{
					"destination" : [ "obj-8", 0 ],
					"midpoints" : [ 1434.5, 588.767582774162292, 1434.5, 588.767582774162292 ],
					"order" : 1,
					"source" : [ "obj-172", 0 ]
				}

			}
, 			{
				"patchline" : 				{
					"destination" : [ "obj-64", 0 ],
					"source" : [ "obj-174", 0 ]
				}

			}
, 			{
				"patchline" : 				{
					"destination" : [ "obj-21", 1 ],
					"midpoints" : [ 699.5, 904.728423953056335, 712.5, 904.728423953056335 ],
					"source" : [ "obj-19", 0 ]
				}

			}
, 			{
				"patchline" : 				{
					"destination" : [ "obj-44", 0 ],
					"midpoints" : [ 655.5, 948.09878396987915, 804.5, 948.09878396987915 ],
					"source" : [ "obj-20", 0 ]
				}

			}
, 			{
				"patchline" : 				{
					"destination" : [ "obj-433", 0 ],
					"midpoints" : [ 699.5, 962.654359936714172, 655.5, 962.654359936714172 ],
					"source" : [ "obj-21", 0 ]
				}

			}
, 			{
				"patchline" : 				{
					"destination" : [ "obj-20", 0 ],
					"order" : 1,
					"source" : [ "obj-22", 0 ]
				}

			}
, 			{
				"patchline" : 				{
					"destination" : [ "obj-21", 0 ],
					"midpoints" : [ 655.5, 904.728423953056335, 699.5, 904.728423953056335 ],
					"order" : 0,
					"source" : [ "obj-22", 0 ]
				}

			}
, 			{
				"patchline" : 				{
					"destination" : [ "obj-12", 1 ],
					"midpoints" : [ 1550.5, 1068.370391964912415, 1555.5, 1068.370391964912415, 1555.5, 1110.0, 1357.5, 1110.0 ],
					"source" : [ "obj-222", 1 ]
				}

			}
, 			{
				"patchline" : 				{
					"destination" : [ "obj-12", 0 ],
					"source" : [ "obj-222", 0 ]
				}

			}
, 			{
				"patchline" : 				{
					"destination" : [ "obj-3", 0 ],
					"source" : [ "obj-23", 0 ]
				}

			}
, 			{
				"patchline" : 				{
					"destination" : [ "obj-46", 0 ],
					"midpoints" : [ 1779.5, 943.898370862007141, 1615.5, 943.898370862007141 ],
					"source" : [ "obj-24", 0 ]
				}

			}
, 			{
				"patchline" : 				{
					"destination" : [ "obj-419", 0 ],
					"midpoints" : [ 1479.5, 903.157626867294312, 1479.5, 903.157626867294312 ],
					"source" : [ "obj-26", 0 ]
				}

			}
, 			{
				"patchline" : 				{
					"destination" : [ "obj-50", 0 ],
					"midpoints" : [ 1134.5, 206.0, 1014.5, 206.0 ],
					"source" : [ "obj-27", 0 ]
				}

			}
, 			{
				"patchline" : 				{
					"destination" : [ "obj-24", 0 ],
					"midpoints" : [ 1479.5, 790.657626867294312, 1779.5, 790.657626867294312 ],
					"order" : 0,
					"source" : [ "obj-28", 0 ]
				}

			}
, 			{
				"patchline" : 				{
					"destination" : [ "obj-26", 0 ],
					"midpoints" : [ 1479.5, 783.157626867294312, 1479.5, 783.157626867294312 ],
					"order" : 1,
					"source" : [ "obj-28", 0 ]
				}

			}
, 			{
				"patchline" : 				{
					"destination" : [ "obj-421", 0 ],
					"midpoints" : [ 129.5, 198.5, 69.5, 198.5 ],
					"source" : [ "obj-281", 0 ]
				}

			}
, 			{
				"patchline" : 				{
					"destination" : [ "obj-2", 0 ],
					"midpoints" : [ 1299.5, 783.5, 1329.5, 783.5 ],
					"order" : 0,
					"source" : [ "obj-29", 0 ]
				}

			}
, 			{
				"patchline" : 				{
					"destination" : [ "obj-447", 0 ],
					"order" : 1,
					"source" : [ "obj-29", 0 ]
				}

			}
, 			{
				"patchline" : 				{
					"destination" : [ "obj-29", 0 ],
					"source" : [ "obj-3", 0 ]
				}

			}
, 			{
				"patchline" : 				{
					"destination" : [ "obj-45", 0 ],
					"midpoints" : [ 2289.5, 965.60209858417511, 2124.5, 965.60209858417511 ],
					"source" : [ "obj-31", 0 ]
				}

			}
, 			{
				"patchline" : 				{
					"destination" : [ "obj-389", 0 ],
					"midpoints" : [ 2020.5, 979.10209858417511, 2020.5, 979.10209858417511 ],
					"source" : [ "obj-32", 0 ]
				}

			}
, 			{
				"patchline" : 				{
					"destination" : [ "obj-42", 0 ],
					"midpoints" : [ 893.5, 277.370391964912415, 893.5, 277.370391964912415 ],
					"order" : 1,
					"source" : [ "obj-328", 0 ]
				}

			}
, 			{
				"patchline" : 				{
					"destination" : [ "obj-50", 1 ],
					"midpoints" : [ 893.5, 224.870391964912415, 1025.0, 224.870391964912415 ],
					"order" : 0,
					"source" : [ "obj-328", 0 ]
				}

			}
, 			{
				"patchline" : 				{
					"destination" : [ "obj-77", 0 ],
					"midpoints" : [ 893.5, 226.0, 684.5, 226.0 ],
					"order" : 2,
					"source" : [ "obj-328", 0 ]
				}

			}
, 			{
				"patchline" : 				{
					"destination" : [ "obj-437", 0 ],
					"midpoints" : [ 114.5, 386.0, 114.5, 386.0 ],
					"source" : [ "obj-341", 0 ]
				}

			}
, 			{
				"patchline" : 				{
					"destination" : [ "obj-31", 0 ],
					"midpoints" : [ 2020.5, 888.5, 2289.5, 888.5 ],
					"order" : 0,
					"source" : [ "obj-35", 0 ]
				}

			}
, 			{
				"patchline" : 				{
					"destination" : [ "obj-32", 0 ],
					"midpoints" : [ 2020.5, 934.10209858417511, 2020.5, 934.10209858417511 ],
					"order" : 1,
					"source" : [ "obj-35", 0 ]
				}

			}
, 			{
				"patchline" : 				{
					"destination" : [ "obj-328", 0 ],
					"midpoints" : [ 893.5, 183.370391964912415, 893.5, 183.370391964912415 ],
					"source" : [ "obj-36", 0 ]
				}

			}
, 			{
				"patchline" : 				{
					"destination" : [ "obj-43", 0 ],
					"midpoints" : [ 279.5, 213.370391964912415, 114.5, 213.370391964912415 ],
					"source" : [ "obj-37", 0 ]
				}

			}
, 			{
				"patchline" : 				{
					"destination" : [ "obj-421", 0 ],
					"midpoints" : [ 69.5, 198.370391964912415, 69.5, 198.370391964912415 ],
					"source" : [ "obj-38", 0 ]
				}

			}
, 			{
				"patchline" : 				{
					"destination" : [ "obj-222", 2 ],
					"midpoints" : [ 2020.5, 1019.870391964912415, 1550.5, 1019.870391964912415 ],
					"order" : 2,
					"source" : [ "obj-389", 0 ]
				}

			}
, 			{
				"patchline" : 				{
					"destination" : [ "obj-45", 1 ],
					"midpoints" : [ 2020.5, 1020.60209858417511, 2135.0, 1020.60209858417511 ],
					"order" : 1,
					"source" : [ "obj-389", 0 ]
				}

			}
, 			{
				"patchline" : 				{
					"destination" : [ "obj-95", 0 ],
					"midpoints" : [ 2020.5, 1020.0, 2169.5, 1020.0 ],
					"order" : 0,
					"source" : [ "obj-389", 0 ]
				}

			}
, 			{
				"patchline" : 				{
					"destination" : [ "obj-37", 0 ],
					"midpoints" : [ 69.5, 108.370391964912415, 279.5, 108.370391964912415 ],
					"order" : 0,
					"source" : [ "obj-39", 0 ]
				}

			}
, 			{
				"patchline" : 				{
					"destination" : [ "obj-38", 0 ],
					"midpoints" : [ 69.5, 153.370391964912415, 69.5, 153.370391964912415 ],
					"order" : 1,
					"source" : [ "obj-39", 0 ]
				}

			}
, 			{
				"patchline" : 				{
					"destination" : [ "obj-426", 0 ],
					"source" : [ "obj-4", 0 ]
				}

			}
, 			{
				"patchline" : 				{
					"destination" : [ "obj-36", 1 ],
					"midpoints" : [ 924.5, 138.370391964912415, 906.5, 138.370391964912415 ],
					"source" : [ "obj-40", 0 ]
				}

			}
, 			{
				"patchline" : 				{
					"destination" : [ "obj-27", 0 ],
					"midpoints" : [ 893.5, 93.370391964912415, 1134.5, 93.370391964912415 ],
					"order" : 0,
					"source" : [ "obj-41", 0 ]
				}

			}
, 			{
				"patchline" : 				{
					"destination" : [ "obj-36", 0 ],
					"midpoints" : [ 893.5, 138.370391964912415, 893.5, 138.370391964912415 ],
					"order" : 1,
					"source" : [ "obj-41", 0 ]
				}

			}
, 			{
				"patchline" : 				{
					"destination" : [ "obj-222", 1 ],
					"midpoints" : [ 1479.5, 1015.734599947929382, 1425.0, 1015.734599947929382 ],
					"order" : 2,
					"source" : [ "obj-419", 0 ]
				}

			}
, 			{
				"patchline" : 				{
					"destination" : [ "obj-46", 1 ],
					"midpoints" : [ 1479.5, 929.102074861526489, 1626.0, 929.102074861526489 ],
					"order" : 1,
					"source" : [ "obj-419", 0 ]
				}

			}
, 			{
				"patchline" : 				{
					"destination" : [ "obj-92", 0 ],
					"midpoints" : [ 1479.5, 922.5, 1824.5, 922.5 ],
					"order" : 0,
					"source" : [ "obj-419", 0 ]
				}

			}
, 			{
				"patchline" : 				{
					"destination" : [ "obj-174", 0 ],
					"midpoints" : [ 69.5, 233.0, 369.5, 233.0 ],
					"order" : 0,
					"source" : [ "obj-421", 0 ]
				}

			}
, 			{
				"patchline" : 				{
					"destination" : [ "obj-43", 1 ],
					"midpoints" : [ 69.5, 232.370391964912415, 125.0, 232.370391964912415 ],
					"order" : 1,
					"source" : [ "obj-421", 0 ]
				}

			}
, 			{
				"patchline" : 				{
					"destination" : [ "obj-438", 0 ],
					"order" : 2,
					"source" : [ "obj-421", 0 ]
				}

			}
, 			{
				"patchline" : 				{
					"destination" : [ "obj-101", 0 ],
					"midpoints" : [ 84.5, 793.0, 264.5, 793.0 ],
					"order" : 0,
					"source" : [ "obj-426", 0 ]
				}

			}
, 			{
				"patchline" : 				{
					"destination" : [ "obj-59", 1 ],
					"midpoints" : [ 84.5, 797.0, 65.0, 797.0 ],
					"order" : 1,
					"source" : [ "obj-426", 0 ]
				}

			}
, 			{
				"patchline" : 				{
					"destination" : [ "obj-146", 0 ],
					"midpoints" : [ 655.5, 1098.5, 999.5, 1098.5 ],
					"order" : 0,
					"source" : [ "obj-429", 0 ]
				}

			}
, 			{
				"patchline" : 				{
					"destination" : [ "obj-44", 1 ],
					"midpoints" : [ 655.5, 1099.049407958984375, 823.5, 1099.049407958984375 ],
					"order" : 1,
					"source" : [ "obj-429", 0 ]
				}

			}
, 			{
				"patchline" : 				{
					"destination" : [ "obj-14", 0 ],
					"midpoints" : [ 114.5, 269.870391964912415, 114.5, 269.870391964912415 ],
					"source" : [ "obj-43", 0 ]
				}

			}
, 			{
				"patchline" : 				{
					"destination" : [ "obj-429", 2 ],
					"midpoints" : [ 745.5, 1050.549407958984375, 741.5, 1050.549407958984375 ],
					"source" : [ "obj-430", 0 ]
				}

			}
, 			{
				"patchline" : 				{
					"destination" : [ "obj-429", 1 ],
					"midpoints" : [ 699.5, 1050.549407958984375, 698.5, 1050.549407958984375 ],
					"source" : [ "obj-431", 0 ]
				}

			}
, 			{
				"patchline" : 				{
					"destination" : [ "obj-429", 0 ],
					"midpoints" : [ 655.5, 1050.549407958984375, 655.5, 1050.549407958984375 ],
					"source" : [ "obj-432", 0 ]
				}

			}
, 			{
				"patchline" : 				{
					"destination" : [ "obj-430", 0 ],
					"midpoints" : [ 753.0, 1008.049407958984375, 745.5, 1008.049407958984375 ],
					"source" : [ "obj-433", 2 ]
				}

			}
, 			{
				"patchline" : 				{
					"destination" : [ "obj-431", 0 ],
					"midpoints" : [ 704.25, 1008.049407958984375, 699.5, 1008.049407958984375 ],
					"source" : [ "obj-433", 1 ]
				}

			}
, 			{
				"patchline" : 				{
					"destination" : [ "obj-432", 0 ],
					"midpoints" : [ 655.5, 1008.049407958984375, 655.5, 1008.049407958984375 ],
					"source" : [ "obj-433", 0 ]
				}

			}
, 			{
				"patchline" : 				{
					"destination" : [ "obj-440", 0 ],
					"source" : [ "obj-437", 0 ]
				}

			}
, 			{
				"patchline" : 				{
					"destination" : [ "obj-423", 0 ],
					"midpoints" : [ 69.5, 497.370391964912415, 69.5, 497.370391964912415 ],
					"order" : 1,
					"source" : [ "obj-438", 0 ]
				}

			}
, 			{
				"patchline" : 				{
					"destination" : [ "obj-52", 0 ],
					"midpoints" : [ 69.5, 498.5, 249.5, 498.5 ],
					"order" : 0,
					"source" : [ "obj-438", 0 ]
				}

			}
, 			{
				"patchline" : 				{
					"destination" : [ "obj-18", 0 ],
					"source" : [ "obj-44", 0 ]
				}

			}
, 			{
				"patchline" : 				{
					"destination" : [ "obj-438", 1 ],
					"source" : [ "obj-440", 1 ]
				}

			}
, 			{
				"patchline" : 				{
					"destination" : [ "obj-438", 0 ],
					"midpoints" : [ 114.5, 452.370391964912415, 69.5, 452.370391964912415 ],
					"source" : [ "obj-440", 0 ]
				}

			}
, 			{
				"patchline" : 				{
					"destination" : [ "obj-447", 1 ],
					"midpoints" : [ 1434.5, 819.611072063446045, 1356.0, 819.611072063446045 ],
					"order" : 2,
					"source" : [ "obj-445", 0 ]
				}

			}
, 			{
				"patchline" : 				{
					"destination" : [ "obj-47", 1 ],
					"midpoints" : [ 1434.5, 675.267582774162292, 1565.0, 675.267582774162292 ],
					"order" : 1,
					"source" : [ "obj-445", 0 ]
				}

			}
, 			{
				"patchline" : 				{
					"destination" : [ "obj-83", 0 ],
					"midpoints" : [ 1434.5, 674.0, 1764.5, 674.0 ],
					"order" : 0,
					"source" : [ "obj-445", 0 ]
				}

			}
, 			{
				"patchline" : 				{
					"destination" : [ "obj-222", 0 ],
					"source" : [ "obj-447", 0 ]
				}

			}
, 			{
				"patchline" : 				{
					"destination" : [ "obj-15", 0 ],
					"source" : [ "obj-45", 0 ]
				}

			}
, 			{
				"patchline" : 				{
					"destination" : [ "obj-16", 0 ],
					"source" : [ "obj-46", 0 ]
				}

			}
, 			{
				"patchline" : 				{
					"destination" : [ "obj-7", 0 ],
					"source" : [ "obj-47", 0 ]
				}

			}
, 			{
				"patchline" : 				{
					"destination" : [ "obj-328", 0 ],
					"midpoints" : [ 804.5, 183.370391964912415, 893.5, 183.370391964912415 ],
					"source" : [ "obj-48", 0 ]
				}

			}
, 			{
				"patchline" : 				{
					"destination" : [ "obj-48", 0 ],
					"source" : [ "obj-49", 0 ]
				}

			}
, 			{
				"patchline" : 				{
					"destination" : [ "obj-38", 1 ],
					"midpoints" : [ 84.5, 153.370391964912415, 82.5, 153.370391964912415 ],
					"source" : [ "obj-5", 0 ]
				}

			}
, 			{
				"patchline" : 				{
					"destination" : [ "obj-42", 0 ],
					"midpoints" : [ 1014.5, 273.870391964912415, 893.5, 273.870391964912415 ],
					"source" : [ "obj-50", 0 ]
				}

			}
, 			{
				"patchline" : 				{
					"destination" : [ "obj-12", 2 ],
					"source" : [ "obj-51", 2 ]
				}

			}
, 			{
				"patchline" : 				{
					"destination" : [ "obj-12", 1 ],
					"midpoints" : [ 1402.5, 1189.5, 1357.5, 1189.5 ],
					"source" : [ "obj-51", 1 ]
				}

			}
, 			{
				"patchline" : 				{
					"destination" : [ "obj-12", 0 ],
					"midpoints" : [ 1389.5, 1173.5, 1299.5, 1173.5 ],
					"source" : [ "obj-51", 0 ]
				}

			}
, 			{
				"patchline" : 				{
					"destination" : [ "obj-58", 0 ],
					"source" : [ "obj-52", 0 ]
				}

			}
, 			{
				"patchline" : 				{
					"destination" : [ "obj-63", 0 ],
					"source" : [ "obj-58", 0 ]
				}

			}
, 			{
				"patchline" : 				{
					"destination" : [ "obj-9", 0 ],
					"source" : [ "obj-59", 0 ]
				}

			}
, 			{
				"patchline" : 				{
					"destination" : [ "obj-61", 1 ],
					"midpoints" : [ 234.5, 694.5, 217.5, 694.5 ],
					"source" : [ "obj-6", 0 ]
				}

			}
, 			{
				"patchline" : 				{
					"destination" : [ "obj-59", 0 ],
					"midpoints" : [ 489.5, 783.370391964912415, 54.5, 783.370391964912415 ],
					"source" : [ "obj-60", 0 ]
				}

			}
, 			{
				"patchline" : 				{
					"destination" : [ "obj-426", 0 ],
					"midpoints" : [ 204.5, 739.0, 84.5, 739.0 ],
					"source" : [ "obj-61", 0 ]
				}

			}
, 			{
				"patchline" : 				{
					"destination" : [ "obj-60", 0 ],
					"midpoints" : [ 204.5, 649.370391964912415, 489.5, 649.370391964912415 ],
					"order" : 0,
					"source" : [ "obj-62", 0 ]
				}

			}
, 			{
				"patchline" : 				{
					"destination" : [ "obj-61", 0 ],
					"midpoints" : [ 204.5, 694.370391964912415, 204.5, 694.370391964912415 ],
					"order" : 1,
					"source" : [ "obj-62", 0 ]
				}

			}
, 			{
				"patchline" : 				{
					"destination" : [ "obj-55", 0 ],
					"source" : [ "obj-64", 0 ]
				}

			}
, 			{
				"patchline" : 				{
					"destination" : [ "obj-341", 0 ],
					"source" : [ "obj-75", 0 ]
				}

			}
, 			{
				"patchline" : 				{
					"destination" : [ "obj-69", 0 ],
					"source" : [ "obj-76", 0 ]
				}

			}
, 			{
				"patchline" : 				{
					"destination" : [ "obj-76", 0 ],
					"source" : [ "obj-77", 0 ]
				}

			}
, 			{
				"patchline" : 				{
					"destination" : [ "obj-445", 0 ],
					"midpoints" : [ 1434.5, 633.767582774162292, 1434.5, 633.767582774162292 ],
					"source" : [ "obj-8", 0 ]
				}

			}
, 			{
				"patchline" : 				{
					"destination" : [ "obj-79", 0 ],
					"source" : [ "obj-80", 0 ]
				}

			}
, 			{
				"patchline" : 				{
					"destination" : [ "obj-80", 0 ],
					"source" : [ "obj-83", 0 ]
				}

			}
, 			{
				"patchline" : 				{
					"destination" : [ "obj-88", 0 ],
					"source" : [ "obj-89", 0 ]
				}

			}
, 			{
				"patchline" : 				{
					"destination" : [ "obj-89", 0 ],
					"source" : [ "obj-92", 0 ]
				}

			}
, 			{
				"patchline" : 				{
					"destination" : [ "obj-93", 0 ],
					"source" : [ "obj-94", 0 ]
				}

			}
, 			{
				"patchline" : 				{
					"destination" : [ "obj-94", 0 ],
					"source" : [ "obj-95", 0 ]
				}

			}
, 			{
				"patchline" : 				{
					"destination" : [ "obj-96", 0 ],
					"source" : [ "obj-98", 0 ]
				}

			}
, 			{
				"patchline" : 				{
					"destination" : [ "obj-98", 0 ],
					"source" : [ "obj-99", 0 ]
				}

			}
 ],
		"saved_attribute_attributes" : 		{
			"default_plcolor" : 			{
				"expression" : ""
			}

		}
,
		"oscreceiveudpport" : 0
	}

}
