{
	"patcher" : 	{
		"fileversion" : 1,
		"appversion" : 		{
			"major" : 9,
			"minor" : 0,
			"revision" : 9,
			"architecture" : "x64",
			"modernui" : 1
		}
,
		"classnamespace" : "box",
		"rect" : [ 59.0, 106.0, 1000.0, 730.0 ],
		"gridsize" : [ 15.0, 15.0 ],
		"boxes" : [ 			{
				"box" : 				{
					"id" : "obj-6",
					"maxclass" : "newobj",
					"numinlets" : 1,
					"numoutlets" : 1,
					"outlettype" : [ "" ],
					"patching_rect" : [ 15.0, 450.0, 54.0, 22.0 ],
					"text" : "deferlow"
				}

			}
, 			{
				"box" : 				{
					"id" : "obj-9",
					"maxclass" : "newobj",
					"numinlets" : 0,
					"numoutlets" : 1,
					"outlettype" : [ "" ],
					"patching_rect" : [ 405.0, 540.0, 265.0, 22.0 ],
					"text" : "r SetAllDevicesAsUnselectedOnLoadNewObject"
				}

			}
, 			{
				"box" : 				{
					"id" : "obj-8",
					"maxclass" : "newobj",
					"numinlets" : 1,
					"numoutlets" : 0,
					"patching_rect" : [ 45.0, 105.0, 267.0, 22.0 ],
					"text" : "s SetAllDevicesAsUnselectedOnLoadNewObject"
				}

			}
, 			{
				"box" : 				{
					"id" : "obj-5",
					"maxclass" : "newobj",
					"numinlets" : 1,
					"numoutlets" : 1,
					"outlettype" : [ "" ],
					"patching_rect" : [ 15.0, 300.0, 54.0, 22.0 ],
					"text" : "deferlow"
				}

			}
, 			{
				"box" : 				{
					"id" : "obj-7",
					"linecount" : 5,
					"maxclass" : "comment",
					"numinlets" : 1,
					"numoutlets" : 0,
					"patching_rect" : [ 15.0, 600.0, 150.0, 75.0 ],
					"text" : "https://cycling74.com/forums/get-id-of-the-device-currently-selected-on-the-active-track#reply-6522686276513a00138f2512"
				}

			}
, 			{
				"box" : 				{
					"id" : "obj-2",
					"maxclass" : "newobj",
					"numinlets" : 2,
					"numoutlets" : 1,
					"outlettype" : [ "bang" ],
					"patching_rect" : [ 15.0, 150.0, 47.0, 22.0 ],
					"text" : "delay 1"
				}

			}
, 			{
				"box" : 				{
					"id" : "obj-4",
					"maxclass" : "newobj",
					"numinlets" : 1,
					"numoutlets" : 3,
					"outlettype" : [ "bang", "int", "int" ],
					"patching_rect" : [ 15.0, 15.0, 83.0, 22.0 ],
					"text" : "live.thisdevice"
				}

			}
, 			{
				"box" : 				{
					"id" : "obj-3",
					"maxclass" : "newobj",
					"numinlets" : 1,
					"numoutlets" : 3,
					"outlettype" : [ "bang", "bang", "bang" ],
					"patching_rect" : [ 15.0, 60.0, 42.0, 22.0 ],
					"text" : "t b b b"
				}

			}
, 			{
				"box" : 				{
					"id" : "obj-28",
					"maxclass" : "newobj",
					"numinlets" : 1,
					"numoutlets" : 0,
					"patching_rect" : [ 270.0, 660.0, 145.0, 22.0 ],
					"text" : "s ---ThisDeviceIsSelected"
				}

			}
, 			{
				"box" : 				{
					"id" : "obj-25",
					"maxclass" : "newobj",
					"numinlets" : 1,
					"numoutlets" : 1,
					"outlettype" : [ "" ],
					"patching_rect" : [ 375.0, 225.0, 57.0, 22.0 ],
					"text" : "tosymbol"
				}

			}
, 			{
				"box" : 				{
					"id" : "obj-24",
					"maxclass" : "toggle",
					"numinlets" : 1,
					"numoutlets" : 1,
					"outlettype" : [ "int" ],
					"parameter_enable" : 0,
					"patching_rect" : [ 270.0, 630.0, 24.0, 24.0 ]
				}

			}
, 			{
				"box" : 				{
					"id" : "obj-22",
					"maxclass" : "message",
					"numinlets" : 2,
					"numoutlets" : 1,
					"outlettype" : [ "" ],
					"patching_rect" : [ 315.0, 585.0, 29.5, 22.0 ],
					"text" : "0"
				}

			}
, 			{
				"box" : 				{
					"id" : "obj-20",
					"maxclass" : "message",
					"numinlets" : 2,
					"numoutlets" : 1,
					"outlettype" : [ "" ],
					"patching_rect" : [ 270.0, 585.0, 29.5, 22.0 ],
					"text" : "1"
				}

			}
, 			{
				"box" : 				{
					"id" : "obj-17",
					"maxclass" : "newobj",
					"numinlets" : 1,
					"numoutlets" : 1,
					"outlettype" : [ "" ],
					"patching_rect" : [ 270.0, 495.0, 57.0, 22.0 ],
					"text" : "tosymbol"
				}

			}
, 			{
				"box" : 				{
					"id" : "obj-16",
					"maxclass" : "newobj",
					"numinlets" : 2,
					"numoutlets" : 2,
					"outlettype" : [ "bang", "" ],
					"patching_rect" : [ 270.0, 540.0, 119.842104434967041, 22.0 ],
					"text" : "sel s"
				}

			}
, 			{
				"box" : 				{
					"id" : "obj-273",
					"maxclass" : "comment",
					"numinlets" : 1,
					"numoutlets" : 0,
					"patching_rect" : [ 15.0, 528.0, 150.0, 20.0 ],
					"text" : "Currently Selected Device"
				}

			}
, 			{
				"box" : 				{
					"id" : "obj-265",
					"maxclass" : "message",
					"numinlets" : 2,
					"numoutlets" : 1,
					"outlettype" : [ "" ],
					"patching_rect" : [ 15.0, 495.0, 150.0, 22.0 ],
					"text" : "id 9"
				}

			}
, 			{
				"box" : 				{
					"fontname" : "Ableton Sans Medium",
					"fontsize" : 10.0,
					"id" : "obj-266",
					"maxclass" : "newobj",
					"numinlets" : 1,
					"numoutlets" : 2,
					"outlettype" : [ "bang", "" ],
					"patching_rect" : [ 15.0, 330.0, 29.5, 20.0 ],
					"text" : "t b l"
				}

			}
, 			{
				"box" : 				{
					"color" : [ 1.0, 0.67843137254902, 0.337254901960784, 1.0 ],
					"fontname" : "Ableton Sans Medium",
					"fontsize" : 10.0,
					"id" : "obj-267",
					"maxclass" : "newobj",
					"numinlets" : 1,
					"numoutlets" : 3,
					"outlettype" : [ "", "", "" ],
					"patching_rect" : [ 15.0, 255.0, 70.0, 20.0 ],
					"saved_attribute_attributes" : 					{
						"color" : 						{
							"expression" : "themecolor.live_control_selection"
						}

					}
,
					"saved_newobj_attribute_attributes" : 					{
						"color" : 						{
							"expression" : "themecolor.live_control_selection"
						}

					}
,
					"text" : "live.path"
				}

			}
, 			{
				"box" : 				{
					"fontname" : "Ableton Sans Medium",
					"fontsize" : 10.0,
					"id" : "obj-268",
					"maxclass" : "message",
					"numinlets" : 2,
					"numoutlets" : 1,
					"outlettype" : [ "" ],
					"patching_rect" : [ 15.0, 225.0, 180.0, 20.0 ],
					"text" : "path live_set view selected_track view"
				}

			}
, 			{
				"box" : 				{
					"fontname" : "Ableton Sans Medium",
					"fontsize" : 10.0,
					"id" : "obj-269",
					"maxclass" : "message",
					"numinlets" : 2,
					"numoutlets" : 1,
					"outlettype" : [ "" ],
					"patching_rect" : [ 15.0, 390.0, 123.0, 20.0 ],
					"text" : "property selected_device"
				}

			}
, 			{
				"box" : 				{
					"color" : [ 1.0, 0.67843137254902, 0.337254901960784, 1.0 ],
					"fontname" : "Ableton Sans Medium",
					"fontsize" : 10.0,
					"id" : "obj-270",
					"maxclass" : "newobj",
					"numinlets" : 2,
					"numoutlets" : 2,
					"outlettype" : [ "", "" ],
					"patching_rect" : [ 15.0, 420.0, 150.0, 20.0 ],
					"saved_attribute_attributes" : 					{
						"color" : 						{
							"expression" : "themecolor.live_control_selection"
						}

					}
,
					"saved_newobj_attribute_attributes" : 					{
						"color" : 						{
							"expression" : "themecolor.live_control_selection"
						}

					}
,
					"saved_object_attributes" : 					{
						"_persistence" : 1
					}
,
					"text" : "live.observer"
				}

			}
, 			{
				"box" : 				{
					"id" : "obj-63",
					"maxclass" : "message",
					"numinlets" : 2,
					"numoutlets" : 1,
					"outlettype" : [ "" ],
					"patching_rect" : [ 375.0, 150.0, 95.0, 22.0 ],
					"text" : "path this_device"
				}

			}
, 			{
				"box" : 				{
					"fontname" : "Arial Bold",
					"fontsize" : 10.0,
					"id" : "obj-132",
					"maxclass" : "newobj",
					"numinlets" : 1,
					"numoutlets" : 3,
					"outlettype" : [ "", "", "" ],
					"patching_rect" : [ 375.0, 180.0, 51.0, 20.0 ],
					"text" : "live.path"
				}

			}
 ],
		"lines" : [ 			{
				"patchline" : 				{
					"destination" : [ "obj-25", 0 ],
					"midpoints" : [ 400.5, 212.5, 384.5, 212.5 ],
					"source" : [ "obj-132", 1 ]
				}

			}
, 			{
				"patchline" : 				{
					"destination" : [ "obj-20", 0 ],
					"midpoints" : [ 279.5, 573.0, 279.5, 573.0 ],
					"source" : [ "obj-16", 0 ]
				}

			}
, 			{
				"patchline" : 				{
					"destination" : [ "obj-22", 0 ],
					"midpoints" : [ 380.342104434967041, 573.0, 324.5, 573.0 ],
					"source" : [ "obj-16", 1 ]
				}

			}
, 			{
				"patchline" : 				{
					"destination" : [ "obj-16", 0 ],
					"source" : [ "obj-17", 0 ]
				}

			}
, 			{
				"patchline" : 				{
					"destination" : [ "obj-268", 0 ],
					"midpoints" : [ 24.5, 197.0, 24.5, 197.0 ],
					"source" : [ "obj-2", 0 ]
				}

			}
, 			{
				"patchline" : 				{
					"destination" : [ "obj-24", 0 ],
					"midpoints" : [ 279.5, 618.0, 279.5, 618.0 ],
					"source" : [ "obj-20", 0 ]
				}

			}
, 			{
				"patchline" : 				{
					"destination" : [ "obj-24", 0 ],
					"midpoints" : [ 324.5, 618.0, 279.5, 618.0 ],
					"source" : [ "obj-22", 0 ]
				}

			}
, 			{
				"patchline" : 				{
					"destination" : [ "obj-28", 0 ],
					"source" : [ "obj-24", 0 ]
				}

			}
, 			{
				"patchline" : 				{
					"destination" : [ "obj-16", 1 ],
					"source" : [ "obj-25", 0 ]
				}

			}
, 			{
				"patchline" : 				{
					"destination" : [ "obj-269", 0 ],
					"source" : [ "obj-266", 0 ]
				}

			}
, 			{
				"patchline" : 				{
					"destination" : [ "obj-270", 1 ],
					"midpoints" : [ 35.0, 375.600000143051147, 155.5, 375.600000143051147 ],
					"source" : [ "obj-266", 1 ]
				}

			}
, 			{
				"patchline" : 				{
					"destination" : [ "obj-5", 0 ],
					"midpoints" : [ 50.0, 287.5, 24.5, 287.5 ],
					"source" : [ "obj-267", 1 ]
				}

			}
, 			{
				"patchline" : 				{
					"destination" : [ "obj-267", 0 ],
					"source" : [ "obj-268", 0 ]
				}

			}
, 			{
				"patchline" : 				{
					"destination" : [ "obj-270", 0 ],
					"source" : [ "obj-269", 0 ]
				}

			}
, 			{
				"patchline" : 				{
					"destination" : [ "obj-6", 0 ],
					"source" : [ "obj-270", 0 ]
				}

			}
, 			{
				"patchline" : 				{
					"destination" : [ "obj-2", 0 ],
					"source" : [ "obj-3", 0 ]
				}

			}
, 			{
				"patchline" : 				{
					"destination" : [ "obj-63", 0 ],
					"midpoints" : [ 36.0, 134.5, 384.5, 134.5 ],
					"source" : [ "obj-3", 1 ]
				}

			}
, 			{
				"patchline" : 				{
					"destination" : [ "obj-8", 0 ],
					"midpoints" : [ 47.5, 93.0, 54.5, 93.0 ],
					"source" : [ "obj-3", 2 ]
				}

			}
, 			{
				"patchline" : 				{
					"destination" : [ "obj-3", 0 ],
					"source" : [ "obj-4", 0 ]
				}

			}
, 			{
				"patchline" : 				{
					"destination" : [ "obj-266", 0 ],
					"source" : [ "obj-5", 0 ]
				}

			}
, 			{
				"patchline" : 				{
					"destination" : [ "obj-17", 0 ],
					"midpoints" : [ 24.5, 480.0, 279.5, 480.0 ],
					"order" : 0,
					"source" : [ "obj-6", 0 ]
				}

			}
, 			{
				"patchline" : 				{
					"destination" : [ "obj-265", 1 ],
					"midpoints" : [ 24.5, 480.0, 155.5, 480.0 ],
					"order" : 1,
					"source" : [ "obj-6", 0 ]
				}

			}
, 			{
				"patchline" : 				{
					"destination" : [ "obj-132", 0 ],
					"source" : [ "obj-63", 0 ]
				}

			}
, 			{
				"patchline" : 				{
					"destination" : [ "obj-22", 0 ],
					"midpoints" : [ 414.5, 573.0, 324.5, 573.0 ],
					"source" : [ "obj-9", 0 ]
				}

			}
 ],
		"dependency_cache" : [  ],
		"autosave" : 0,
		"oscreceiveudpport" : 0
	}

}
